EAC extraction logfile from 9. February 2008, 16:47 for CD
Europe / Best Of Europe [1982-1992]

Used drive  : PIONEER DVD-RW  DVR-111D   Adapter: 0  ID: 3
Read mode   : Secure with NO C2, accurate stream, disable cache
Read offset correction : 48
Overread into Lead-In and Lead-Out : No

Used output format : C:Program FilesExact Audio CopyFlac 1.1.4flac.exe   (User Defined Encoder)
                     320 kBit/s
                     Additional command line options : -8 -V -T "artist=%a" -T "title=%t" -T "album=%g" -T "date=%y" -T "tracknumber=%n" -T "genre=%m" %s

Other options      : 
    Fill up missing offset samples with silence : Yes
    Delete leading and trailing silent blocks : No
    Installed external ASPI interface


Track  1
     Filename F:Europe☺ - In The Future To Come.wav

     Pre-gap length  0:00:02.00

     Peak level 99.2 %
     Track quality 99.9 %
     Test CRC BED8B943
     Copy CRC BED8B943
     Copy OK

Track  2
     Filename F:Europe☻ - Seven Doors Hotel.wav

     Peak level 99.2 %
     Track quality 99.9 %
     Test CRC 41D452CE
     Copy CRC 41D452CE
     Copy OK

Track  3
     Filename F:Europe♥ - Stormwind.wav

     Peak level 99.2 %
     Track quality 100.0 %
     Test CRC C60FC7AF
     Copy CRC C60FC7AF
     Copy OK

Track  4
     Filename F:Europe♦ - Open Your Heart.wav

     Peak level 99.2 %
     Track quality 100.0 %
     Test CRC 48670A71
     Copy CRC 48670A71
     Copy OK

Track  5
     Filename F:Europe♣ - Scream Of Anger.wav

     Peak level 99.2 %
     Track quality 99.9 %
     Test CRC DFA12621
     Copy CRC DFA12621
     Copy OK

Track  6
     Filename F:Europe♠ - Dreamer.wav

     Peak level 99.2 %
     Track quality 99.9 %
     Test CRC F1222F28
     Copy CRC F1222F28
     Copy OK

Track  7
     Filename F:Europe• - The Final Countdown.wav

     Peak level 99.2 %
     Track quality 99.9 %
     Test CRC 358ACB7A
     Copy CRC 358ACB7A
     Copy OK

Track  8
     Filename F:Europe8 - On Broken Wings.wav

     Peak level 99.2 %
     Track quality 100.0 %
     Test CRC 9DA3CDB1
     Copy CRC 9DA3CDB1
     Copy OK

Track  9
     Filename F:Europe9 - Rock The Night.wav

     Peak level 99.2 %
     Track quality 100.0 %
     Test CRC E4DA12EC
     Copy CRC E4DA12EC
     Copy OK

Track 10
     Filename F:Europe◘ - Carrie.wav

     Peak level 99.2 %
     Track quality 99.9 %
     Test CRC 1ED39B7B
     Copy CRC 1ED39B7B
     Copy OK

Track 11
     Filename F:Europe	 - Cherokee.wav

     Peak level 99.2 %
     Track quality 100.0 %
     Test CRC F0E2DD90
     Copy CRC F0E2DD90
     Copy OK

Track 12
     Filename F:Europe
 - Superstitious.wav

     Peak level 99.2 %
     Track quality 100.0 %
     Test CRC 0241CA34
     Copy CRC 0241CA34
     Copy OK

Track 13
     Filename F:Europe♂ - Ready Or Not.wav

     Peak level 99.2 %
     Track quality 100.0 %
     Test CRC 92DA802E
     Copy CRC 92DA802E
     Copy OK

Track 14
     Filename F:Europe♀ - Prisoners In Paradise.wav

     Peak level 93.5 %
     Track quality 100.0 %
     Test CRC 8A339071
     Copy CRC 8A339071
     Copy OK

Track 15
     Filename F:Europe
 - I'll Cry For You (acoustic version).wav

     Peak level 99.2 %
     Track quality 100.0 %
     Test CRC 66AB4322
     Copy CRC 66AB4322
     Copy OK

Track 16
     Filename F:Europe♫ - Sweet Love Child (previously unreleased).wav

     Peak level 99.2 %
     Track quality 100.0 %
     Test CRC EF64DADC
     Copy CRC EF64DADC
     Copy OK

Track 17
     Filename F:Europe☼ - Yesterday's News (previously unreleased).wav

     Peak level 99.2 %
     Track quality 99.9 %
     Test CRC 03BD8488
     Copy CRC 03BD8488
     Copy OK

No errors occured


End of status report
